<svg width="20" height="20" viewBox="0 0 20 20" fill="none" xmlns="http://www.w3.org/2000/svg">
<g clip-path="url(#clip0_1697_441321)">
<path d="M20 10C20 15.5228 15.5228 20 10 20C4.47719 20 0 15.5228 0 10C0 10.0023 10 0.00113281 10 0C15.5228 0 20 4.47719 20 10Z" fill="#0052B4"/>
<path d="M9.97266 10.0003H9.99947C9.99947 9.99124 9.99947 9.98255 9.99947 9.97351C9.99054 9.98247 9.98162 9.99139 9.97266 10.0003Z" fill="#F0F0F0"/>
<path d="M9.99999 5.21824C9.99999 3.45867 9.99999 2.30566 9.99999 0.000854492H9.99831C4.47625 0.00175293 0 4.47851 0 10.0008H5.21738V7.06285L8.15535 10.0008H9.97328C9.98222 9.99191 9.99113 9.983 10 9.97406C10 9.30035 10 8.69921 10 8.15624L7.06203 5.21824H9.99999Z" fill="#F0F0F0"/>
<path d="M5.05953 1.30481C3.49551 2.1954 2.19527 3.49563 1.30469 5.05965V10.0005H3.9134V3.91356V3.91352H10.0004C10.0004 3.09075 10.0004 2.30692 10.0004 1.30481H5.05953V1.30481Z" fill="#D80027"/>
<path d="M9.99937 8.77073L6.44652 5.21791H5.2168C5.2168 5.21787 5.2168 5.21791 5.2168 5.21791L9.99933 10.0005H9.99937C9.99937 10.0005 9.99937 9.1526 9.99937 8.77073Z" fill="#D80027"/>
<path d="M6.03059 11.7386L6.57941 12.8862L7.81875 12.5998L7.26375 13.7444L8.26039 14.5347L7.01949 14.8144L7.02297 16.0865L6.03059 15.2906L5.03824 16.0865L5.04172 14.8144L3.80078 14.5347L4.79746 13.7444L4.24238 12.5998L5.4818 12.8862L6.03059 11.7386Z" fill="#F0F0F0"/>
<path d="M14.9723 13.9127L15.2467 14.4865L15.8664 14.3433L15.5889 14.9156L16.0872 15.3108L15.4668 15.4506L15.4685 16.0866L14.9723 15.6887L14.4761 16.0866L14.4779 15.4506L13.8574 15.3108L14.3557 14.9156L14.0782 14.3433L14.6979 14.4865L14.9723 13.9127Z" fill="#F0F0F0"/>
<path d="M12.4177 7.82605L12.692 8.39988L13.3117 8.2566L13.0342 8.8289L13.5325 9.2241L12.9121 9.36394L12.9138 9.99996L12.4177 9.60203L11.9215 9.99996L11.9232 9.36394L11.3027 9.2241L11.8011 8.8289L11.5236 8.2566L12.1432 8.39988L12.4177 7.82605Z" fill="#F0F0F0"/>
<path d="M14.9723 4.3479L15.2467 4.92173L15.8664 4.77849L15.5889 5.35079L16.0872 5.74595L15.4668 5.88583L15.4685 6.52185L14.9723 6.12392L14.4761 6.52185L14.4779 5.88583L13.8574 5.74595L14.3557 5.35079L14.0782 4.77849L14.6979 4.92173L14.9723 4.3479Z" fill="#F0F0F0"/>
<path d="M17.2009 6.95642L17.4752 7.53025L18.0949 7.38697L17.8174 7.95927L18.3157 8.35447L17.6953 8.49435L17.697 9.13033L17.2009 8.73244L16.7047 9.13033L16.7064 8.49435L16.0859 8.35447L16.5843 7.95927L16.3068 7.38697L16.9264 7.53025L17.2009 6.95642Z" fill="#F0F0F0"/>
<path d="M15.6077 10.0001L15.8235 10.6644H16.522L15.9569 11.075L16.1728 11.7393L15.6077 11.3287L15.0426 11.7393L15.2584 11.075L14.6934 10.6644H15.3918L15.6077 10.0001Z" fill="#F0F0F0"/>
</g>
<defs>
<clipPath id="clip0_1697_441321">
<rect width="20" height="20" fill="white"/>
</clipPath>
</defs>
</svg>
